# ProBuilder 4.0.5
# https://unity3d.com/unity/features/worldbuilding/probuilder
# 14/10/2019 16:33:23

mtllib ./cylinder1.mtl
o cylinder1

g Cylinder
v -0.5 -0.5 0
v -0.5 0.5 0
v -0.4045085 -0.5 0.2938926
v -0.4045085 0.5 0.2938926
v -0.1545085 -0.5 0.4755282
v -0.1545085 0.5 0.4755282
v 0.1545085 -0.5 0.4755282
v 0.1545085 0.5 0.4755282
v 0.4045086 -0.5 0.2938926
v 0.4045086 0.5 0.2938926
v 0.5 -0.5 -2.980232E-08
v 0.5 0.5 -2.980232E-08
v 0.4045086 -0.5 -0.2938926
v 0.4045086 0.5 -0.2938926
v 0.1545086 -0.5 -0.4755282
v 0.1545086 0.5 -0.4755282
v -0.1545086 -0.5 -0.4755282
v -0.1545086 0.5 -0.4755282
v -0.4045085 -0.5 -0.2938927
v -0.4045085 0.5 -0.2938927
v 0 -0.5 0
v 0 0.5 0

vt 0.4978979 0.3444304
vt 0.4978979 0.6555696
vt 0.5940453 0.3444304
vt 0.5940453 0.6555696
vt 0.5955714 0.3444304
vt 0.5955714 0.6555696
vt 0.6917186 0.3444304
vt 0.6917186 0.6555696
vt 0.6932449 0.3444304
vt 0.6932449 0.6555696
vt 0.7893922 0.3444304
vt 0.7893922 0.6555696
vt 0.7909184 0.3444304
vt 0.7909184 0.6555696
vt 0.8870657 0.3444304
vt 0.8870657 0.6555696
vt 0.8885918 0.3444304
vt 0.8885918 0.6555696
vt 0.9847391 0.3444304
vt 0.9847391 0.6555696
vt 0.009530544 0.3444304
vt 0.009530544 0.6555696
vt 0.1056778 0.3444304
vt 0.1056778 0.6555696
vt 0.107204 0.3444304
vt 0.107204 0.6555696
vt 0.2033514 0.3444304
vt 0.2033514 0.6555696
vt 0.2048775 0.3444304
vt 0.2048775 0.6555696
vt 0.3010249 0.3444304
vt 0.3010249 0.6555696
vt 0.302551 0.3444304
vt 0.302551 0.6555696
vt 0.3986983 0.3444304
vt 0.3986983 0.6555696
vt 0.4002245 0.3444304
vt 0.4002245 0.6555696
vt 0.4963718 0.3444304
vt 0.4963718 0.6555696
vt 0.3732782 0.2638806
vt 0.5 0.1718119
vt 0.3433633 0.1718119
vt 0.4515966 0.3207823
vt 0.5484034 0.3207823
vt 0.6267217 0.2638806
vt 0.6566367 0.1718119
vt 0.6267217 0.07974321
vt 0.5484034 0.02284157
vt 0.4515966 0.02284157
vt 0.3732782 0.07974317
vt 0.6530761 0.823443
vt 0.4999999 0.823443
vt 0.6238412 0.9134189
vt 0.5473031 0.9690272
vt 0.4526968 0.9690272
vt 0.3761587 0.9134189
vt 0.3469238 0.823443
vt 0.3761587 0.7334671
vt 0.4526968 0.6778589
vt 0.5473031 0.6778589
vt 0.6238412 0.7334671

vn -0.9941859 0 -0.1076769
vn -0.9941859 0 0.1076769
vn -0.8676041 0 0.4972555
vn -0.7410224 0 0.6714803
vn -0.4096271 0 0.9122531
vn -0.2048135 0 0.978801
vn 0.2048135 0 0.978801
vn 0.409627 0 0.9122531
vn 0.7410224 0 0.6714803
vn 0.8676043 0 0.4972554
vn 0.9941859 0 0.1076767
vn 0.9941859 0 -0.1076768
vn 0.8676043 0 -0.4972553
vn 0.7410226 0 -0.6714801
vn 0.4096272 0 -0.912253
vn 0.2048136 0 -0.978801
vn -0.2048136 0 -0.978801
vn -0.4096272 0 -0.912253
vn -0.7410225 0 -0.6714802
vn -0.8676041 0 -0.4972554
vn 0 -1 0
vn 0 1 0

g Cylinder
usemtl Default-Diffuse
f 3/3/3 2/2/2 1/1/1
f 3/3/3 4/4/4 2/2/2
f 5/7/5 4/6/4 3/5/3
f 5/7/5 6/8/6 4/6/4
f 7/11/7 6/10/6 5/9/5
f 7/11/7 8/12/8 6/10/6
f 9/15/9 8/14/8 7/13/7
f 9/15/9 10/16/10 8/14/8
f 11/19/11 10/18/10 9/17/9
f 11/19/11 12/20/12 10/18/10
f 13/23/13 12/22/12 11/21/11
f 13/23/13 14/24/14 12/22/12
f 15/27/15 14/26/14 13/25/13
f 15/27/15 16/28/16 14/26/14
f 17/31/17 16/30/16 15/29/15
f 17/31/17 18/32/18 16/30/16
f 19/35/19 18/34/18 17/33/17
f 19/35/19 20/36/20 18/34/18
f 1/39/1 20/38/20 19/37/19
f 1/39/1 2/40/2 20/38/20
f 1/43/21 21/42/21 3/41/21
f 3/41/21 21/42/21 5/44/21
f 5/44/21 21/42/21 7/45/21
f 7/45/21 21/42/21 9/46/21
f 9/46/21 21/42/21 11/47/21
f 11/47/21 21/42/21 13/48/21
f 13/48/21 21/42/21 15/49/21
f 15/49/21 21/42/21 17/50/21
f 17/50/21 21/42/21 19/51/21
f 19/51/21 21/42/21 1/43/21
f 4/54/22 22/53/22 2/52/22
f 6/55/22 22/53/22 4/54/22
f 8/56/22 22/53/22 6/55/22
f 10/57/22 22/53/22 8/56/22
f 12/58/22 22/53/22 10/57/22
f 14/59/22 22/53/22 12/58/22
f 16/60/22 22/53/22 14/59/22
f 18/61/22 22/53/22 16/60/22
f 20/62/22 22/53/22 18/61/22
f 2/52/22 22/53/22 20/62/22

