# ProBuilder 4.0.5
# https://unity3d.com/unity/features/worldbuilding/probuilder
# 14/10/2019 16:49:22

mtllib ./cylinder4.mtl
o cylinder4

g Cylinder (3)
v -0.5 -0.5 0
v -0.5 0.5 0
v -0.4045086 -0.5 0.2938926
v -0.4045086 0.5 0.2938926
v -0.1545086 -0.5 0.4755282
v -0.1545086 0.5 0.4755282
v 0.1545084 -0.5 0.4755282
v 0.1545084 0.5 0.4755282
v 0.4045086 -0.5 0.2938926
v 0.4045086 0.5 0.2938926
v 0.5 -0.5 0
v 0.5 0.5 0
v 0.4045086 -0.5 -0.2938926
v 0.4045086 0.5 -0.2938926
v 0.1545086 -0.5 -0.4755282
v 0.1545086 0.5 -0.4755282
v -0.1545086 -0.5 -0.4755282
v -0.1545086 0.5 -0.4755282
v -0.4045086 -0.5 -0.2938926
v -0.4045086 0.5 -0.2938926
v 0 -0.5 0
v 0 0.5 0

vt 1.043967 0.3475859
vt 1.043967 0.9814198
vt 1.112126 0.3475859
vt 1.112126 0.9814198
vt 2.738513 0.3475859
vt 2.738513 0.9814198
vt 2.806672 0.3475859
vt 2.806672 0.9814198
vt 3.619873 0.3475859
vt 3.619873 0.9814198
vt 3.688032 0.3475859
vt 3.688032 0.9814198
vt 3.388706 0.3475859
vt 3.388706 0.9814198
vt 3.456865 0.3475859
vt 3.456865 0.9814198
vt 2.170617 0.3475859
vt 2.170617 0.9814198
vt 2.238775 0.3475859
vt 2.238775 0.9814198
vt -0.50855 0.3475859
vt -0.50855 0.9814198
vt -0.4403911 0.3475859
vt -0.4403911 0.9814198
vt -2.007749 0.3475859
vt -2.007749 0.9814198
vt -1.93959 0.3475859
vt -1.93959 0.9814198
vt -2.693762 0.3475859
vt -2.693762 0.9814198
vt -2.625603 0.3475859
vt -2.625603 0.9814198
vt -2.267248 0.3475859
vt -2.267248 0.9814198
vt -2.199089 0.3475859
vt -2.199089 0.9814198
vt -0.8538119 0.3475859
vt -0.8538119 0.9814198
vt -0.785653 0.3475859
vt -0.785653 0.9814198
vt 0.1277549 0.7704519
vt 0.5000001 0.5
vt 0.03987971 0.5
vt 0.357815 0.9376004
vt 0.642185 0.9376004
vt 0.8722452 0.7704519
vt 0.9601204 0.5
vt 0.8722452 0.2295481
vt 0.6421852 0.06239957
vt 0.357815 0.06239957
vt 0.1277549 0.229548
vt 0.9592284 0.4999998
vt 0.4999999 0.4999998
vt 0.8715236 0.7699275
vt 0.6419093 0.9367523
vt 0.3580905 0.9367523
vt 0.1284761 0.7699275
vt 0.04077137 0.4999998
vt 0.1284761 0.2300721
vt 0.3580905 0.06324768
vt 0.6419093 0.06324768
vt 0.8715236 0.2300721

vn -0.9941859 0 -0.1076768
vn -0.9941859 0 0.1076768
vn -0.8676043 0 0.4972553
vn -0.7410225 0 0.6714802
vn -0.4096271 0 0.9122531
vn -0.2048135 0 0.978801
vn 0.2048134 0 0.978801
vn 0.4096268 0 0.9122532
vn 0.7410223 0 0.6714804
vn 0.8676042 0 0.4972554
vn 0.9941859 0 0.1076767
vn 0.9941859 0 -0.1076768
vn 0.8676043 0 -0.4972553
vn 0.7410226 0 -0.6714801
vn 0.4096272 0 -0.912253
vn 0.2048136 0 -0.978801
vn -0.2048135 0 -0.978801
vn -0.4096271 0 -0.9122531
vn -0.7410225 0 -0.6714802
vn -0.8676043 0 -0.4972553
vn 0 -1 0
vn 0 1 0

g Cylinder (3)
usemtl Default-Diffuse
f 3/3/3 2/2/2 1/1/1
f 3/3/3 4/4/4 2/2/2
f 5/7/5 4/6/4 3/5/3
f 5/7/5 6/8/6 4/6/4
f 7/11/7 6/10/6 5/9/5
f 7/11/7 8/12/8 6/10/6
f 9/15/9 8/14/8 7/13/7
f 9/15/9 10/16/10 8/14/8
f 11/19/11 10/18/10 9/17/9
f 11/19/11 12/20/12 10/18/10
f 13/23/13 12/22/12 11/21/11
f 13/23/13 14/24/14 12/22/12
f 15/27/15 14/26/14 13/25/13
f 15/27/15 16/28/16 14/26/14
f 17/31/17 16/30/16 15/29/15
f 17/31/17 18/32/18 16/30/16
f 19/35/19 18/34/18 17/33/17
f 19/35/19 20/36/20 18/34/18
f 1/39/1 20/38/20 19/37/19
f 1/39/1 2/40/2 20/38/20
f 1/43/21 21/42/21 3/41/21
f 3/41/21 21/42/21 5/44/21
f 5/44/21 21/42/21 7/45/21
f 7/45/21 21/42/21 9/46/21
f 9/46/21 21/42/21 11/47/21
f 11/47/21 21/42/21 13/48/21
f 13/48/21 21/42/21 15/49/21
f 15/49/21 21/42/21 17/50/21
f 17/50/21 21/42/21 19/51/21
f 19/51/21 21/42/21 1/43/21
f 4/54/22 22/53/22 2/52/22
f 6/55/22 22/53/22 4/54/22
f 8/56/22 22/53/22 6/55/22
f 10/57/22 22/53/22 8/56/22
f 12/58/22 22/53/22 10/57/22
f 14/59/22 22/53/22 12/58/22
f 16/60/22 22/53/22 14/59/22
f 18/61/22 22/53/22 16/60/22
f 20/62/22 22/53/22 18/61/22
f 2/52/22 22/53/22 20/62/22

